%TF.GenerationSoftware,KiCad,Pcbnew,9.0.2+dfsg-1*%
%TF.CreationDate,2025-12-23T07:51:39+00:00*%
%TF.ProjectId,OldStyleDigitalClock,4f6c6453-7479-46c6-9544-69676974616c,1*%
%TF.SameCoordinates,Original*%
%TF.FileFunction,Paste,Top*%
%TF.FilePolarity,Positive*%
%FSLAX46Y46*%
G04 Gerber Fmt 4.6, Leading zero omitted, Abs format (unit mm)*
G04 Created by KiCad (PCBNEW 9.0.2+dfsg-1) date 2025-12-23 07:51:39*
%MOMM*%
%LPD*%
G01*
G04 APERTURE LIST*
G04 Aperture macros list*
%AMRoundRect*
0 Rectangle with rounded corners*
0 $1 Rounding radius*
0 $2 $3 $4 $5 $6 $7 $8 $9 X,Y pos of 4 corners*
0 Add a 4 corners polygon primitive as box body*
4,1,4,$2,$3,$4,$5,$6,$7,$8,$9,$2,$3,0*
0 Add four circle primitives for the rounded corners*
1,1,$1+$1,$2,$3*
1,1,$1+$1,$4,$5*
1,1,$1+$1,$6,$7*
1,1,$1+$1,$8,$9*
0 Add four rect primitives between the rounded corners*
20,1,$1+$1,$2,$3,$4,$5,0*
20,1,$1+$1,$4,$5,$6,$7,0*
20,1,$1+$1,$6,$7,$8,$9,0*
20,1,$1+$1,$8,$9,$2,$3,0*%
G04 Aperture macros list end*
%ADD10RoundRect,0.250000X-0.625000X0.312500X-0.625000X-0.312500X0.625000X-0.312500X0.625000X0.312500X0*%
%ADD11RoundRect,0.250000X0.625000X-0.312500X0.625000X0.312500X-0.625000X0.312500X-0.625000X-0.312500X0*%
%ADD12RoundRect,0.250000X-0.650000X0.325000X-0.650000X-0.325000X0.650000X-0.325000X0.650000X0.325000X0*%
%ADD13RoundRect,0.150000X0.150000X-0.825000X0.150000X0.825000X-0.150000X0.825000X-0.150000X-0.825000X0*%
%ADD14RoundRect,0.250000X0.325000X0.650000X-0.325000X0.650000X-0.325000X-0.650000X0.325000X-0.650000X0*%
%ADD15RoundRect,0.250000X0.650000X-0.325000X0.650000X0.325000X-0.650000X0.325000X-0.650000X-0.325000X0*%
%ADD16RoundRect,0.150000X-0.150000X0.825000X-0.150000X-0.825000X0.150000X-0.825000X0.150000X0.825000X0*%
%ADD17RoundRect,0.225000X0.225000X0.375000X-0.225000X0.375000X-0.225000X-0.375000X0.225000X-0.375000X0*%
%ADD18RoundRect,0.225000X-0.375000X0.225000X-0.375000X-0.225000X0.375000X-0.225000X0.375000X0.225000X0*%
%ADD19RoundRect,0.250000X0.312500X0.625000X-0.312500X0.625000X-0.312500X-0.625000X0.312500X-0.625000X0*%
%ADD20RoundRect,0.150000X-1.050000X-0.150000X1.050000X-0.150000X1.050000X0.150000X-1.050000X0.150000X0*%
%ADD21RoundRect,0.150000X0.825000X0.150000X-0.825000X0.150000X-0.825000X-0.150000X0.825000X-0.150000X0*%
%ADD22RoundRect,0.250000X-0.312500X-0.625000X0.312500X-0.625000X0.312500X0.625000X-0.312500X0.625000X0*%
%ADD23RoundRect,0.150000X-0.825000X-0.150000X0.825000X-0.150000X0.825000X0.150000X-0.825000X0.150000X0*%
%ADD24RoundRect,0.225000X-0.225000X-0.375000X0.225000X-0.375000X0.225000X0.375000X-0.225000X0.375000X0*%
%ADD25R,1.150000X0.300000*%
G04 APERTURE END LIST*
D10*
%TO.C,R14*%
X130594600Y-91115400D03*
X130594600Y-94040400D03*
%TD*%
D11*
%TO.C,R2*%
X153452260Y-65592400D03*
X153452260Y-62667400D03*
%TD*%
D12*
%TO.C,C16*%
X66000000Y-80300000D03*
X66000000Y-83250000D03*
%TD*%
D11*
%TO.C,R27*%
X108673800Y-65602500D03*
X108673800Y-62677500D03*
%TD*%
D13*
%TO.C,U15*%
X78485000Y-81550000D03*
X79755000Y-81550000D03*
X81025000Y-81550000D03*
X82295000Y-81550000D03*
X83565000Y-81550000D03*
X84835000Y-81550000D03*
X86105000Y-81550000D03*
X87375000Y-81550000D03*
X87375000Y-76600000D03*
X86105000Y-76600000D03*
X84835000Y-76600000D03*
X83565000Y-76600000D03*
X82295000Y-76600000D03*
X81025000Y-76600000D03*
X79755000Y-76600000D03*
X78485000Y-76600000D03*
%TD*%
D10*
%TO.C,R33*%
X63400000Y-117337500D03*
X63400000Y-120262500D03*
%TD*%
%TO.C,R23*%
X113728460Y-91140000D03*
X113728460Y-94065000D03*
%TD*%
D14*
%TO.C,C4*%
X179925000Y-82201785D03*
X176975000Y-82201785D03*
%TD*%
D10*
%TO.C,R35*%
X60350000Y-109762500D03*
X60350000Y-112687500D03*
%TD*%
D14*
%TO.C,C2*%
X179937500Y-96570000D03*
X176987500Y-96570000D03*
%TD*%
D10*
%TO.C,R12*%
X138214600Y-91115400D03*
X138214600Y-94040400D03*
%TD*%
D11*
%TO.C,R24*%
X116243060Y-65602500D03*
X116243060Y-62677500D03*
%TD*%
D15*
%TO.C,C5*%
X118777060Y-104875000D03*
X118777060Y-101925000D03*
%TD*%
D11*
%TO.C,R32*%
X98437600Y-65602500D03*
X98437600Y-62677500D03*
%TD*%
%TO.C,R10*%
X138163800Y-65577900D03*
X138163800Y-62652900D03*
%TD*%
D10*
%TO.C,R5*%
X148372260Y-91140000D03*
X148372260Y-94065000D03*
%TD*%
D11*
%TO.C,R_{S}1*%
X58315989Y-78145000D03*
X58315989Y-75220000D03*
%TD*%
D16*
%TO.C,U12*%
X69205000Y-66050393D03*
X67935000Y-66050393D03*
X66665000Y-66050393D03*
X65395000Y-66050393D03*
X64125000Y-66050393D03*
X62855000Y-66050393D03*
X61585000Y-66050393D03*
X60315000Y-66050393D03*
X60315000Y-71000393D03*
X61585000Y-71000393D03*
X62855000Y-71000393D03*
X64125000Y-71000393D03*
X65395000Y-71000393D03*
X66665000Y-71000393D03*
X67935000Y-71000393D03*
X69205000Y-71000393D03*
%TD*%
D12*
%TO.C,C6*%
X173225000Y-107075000D03*
X173225000Y-110025000D03*
%TD*%
D13*
%TO.C,U14*%
X78485000Y-70825000D03*
X79755000Y-70825000D03*
X81025000Y-70825000D03*
X82295000Y-70825000D03*
X83565000Y-70825000D03*
X84835000Y-70825000D03*
X86105000Y-70825000D03*
X87375000Y-70825000D03*
X87375000Y-65875000D03*
X86105000Y-65875000D03*
X84835000Y-65875000D03*
X83565000Y-65875000D03*
X82295000Y-65875000D03*
X81025000Y-65875000D03*
X79755000Y-65875000D03*
X78485000Y-65875000D03*
%TD*%
D11*
%TO.C,R26*%
X106083000Y-65602500D03*
X106083000Y-62677500D03*
%TD*%
D17*
%TO.C,D1*%
X69450000Y-120350000D03*
X66150000Y-120350000D03*
%TD*%
D11*
%TO.C,R11*%
X140678400Y-65577900D03*
X140678400Y-62652900D03*
%TD*%
D10*
%TO.C,R28*%
X106057600Y-91140000D03*
X106057600Y-94065000D03*
%TD*%
D12*
%TO.C,C13*%
X178675000Y-69100000D03*
X178675000Y-72050000D03*
%TD*%
%TO.C,C15*%
X58250000Y-80300000D03*
X58250000Y-83250000D03*
%TD*%
D18*
%TO.C,D2*%
X66449000Y-110852476D03*
X66449000Y-114152476D03*
%TD*%
D19*
%TO.C,R34*%
X169312500Y-75175000D03*
X166387500Y-75175000D03*
%TD*%
D17*
%TO.C,D3*%
X180875000Y-74436134D03*
X177575000Y-74436134D03*
%TD*%
D11*
%TO.C,R9*%
X145832260Y-65592400D03*
X145832260Y-62667400D03*
%TD*%
D10*
%TO.C,R7*%
X145832260Y-91140000D03*
X145832260Y-94065000D03*
%TD*%
%TO.C,R29*%
X100977600Y-91140000D03*
X100977600Y-94065000D03*
%TD*%
D20*
%TO.C,U8*%
X115190000Y-108255000D03*
X115190000Y-109525000D03*
X115190000Y-110795000D03*
X115190000Y-112065000D03*
X115190000Y-113335000D03*
X115190000Y-114605000D03*
X115190000Y-115875000D03*
X115190000Y-117145000D03*
X121690000Y-117145000D03*
X121690000Y-115875000D03*
X121690000Y-114605000D03*
X121690000Y-113335000D03*
X121690000Y-112065000D03*
X121690000Y-110795000D03*
X121690000Y-109525000D03*
X121690000Y-108255000D03*
%TD*%
D21*
%TO.C,U11*%
X174275000Y-72090000D03*
X174275000Y-70820000D03*
X174275000Y-69550000D03*
X174275000Y-68280000D03*
X169325000Y-68280000D03*
X169325000Y-69550000D03*
X169325000Y-70820000D03*
X169325000Y-72090000D03*
%TD*%
D10*
%TO.C,R13*%
X133109200Y-91115400D03*
X133109200Y-94040400D03*
%TD*%
D15*
%TO.C,C8*%
X103490000Y-104875000D03*
X103490000Y-101925000D03*
%TD*%
D10*
%TO.C,R22*%
X116268460Y-91140000D03*
X116268460Y-94065000D03*
%TD*%
D19*
%TO.C,R_{C}1*%
X63655000Y-75207500D03*
X60730000Y-75207500D03*
%TD*%
%TO.C,R1*%
X175137500Y-92075000D03*
X172212500Y-92075000D03*
%TD*%
D11*
%TO.C,R25*%
X113753860Y-65602500D03*
X113753860Y-62677500D03*
%TD*%
%TO.C,R36*%
X60350000Y-107762500D03*
X60350000Y-104837500D03*
%TD*%
D20*
%TO.C,U10*%
X99902940Y-108255000D03*
X99902940Y-109525000D03*
X99902940Y-110795000D03*
X99902940Y-112065000D03*
X99902940Y-113335000D03*
X99902940Y-114605000D03*
X99902940Y-115875000D03*
X99902940Y-117145000D03*
X106402940Y-117145000D03*
X106402940Y-115875000D03*
X106402940Y-114605000D03*
X106402940Y-113335000D03*
X106402940Y-112065000D03*
X106402940Y-110795000D03*
X106402940Y-109525000D03*
X106402940Y-108255000D03*
%TD*%
D22*
%TO.C,R6*%
X177020000Y-101520000D03*
X179945000Y-101520000D03*
%TD*%
D11*
%TO.C,R3*%
X155992260Y-65602500D03*
X155992260Y-62677500D03*
%TD*%
D12*
%TO.C,C7*%
X90125000Y-87950000D03*
X90125000Y-90900000D03*
%TD*%
D14*
%TO.C,C12*%
X166050000Y-68250000D03*
X163100000Y-68250000D03*
%TD*%
D11*
%TO.C,R19*%
X121373860Y-65602500D03*
X121373860Y-62677500D03*
%TD*%
%TO.C,R20*%
X123863060Y-65602500D03*
X123863060Y-62677500D03*
%TD*%
D10*
%TO.C,R21*%
X121297660Y-91140000D03*
X121297660Y-94065000D03*
%TD*%
D20*
%TO.C,U3*%
X147290000Y-108255000D03*
X147290000Y-109525000D03*
X147290000Y-110795000D03*
X147290000Y-112065000D03*
X147290000Y-113335000D03*
X147290000Y-114605000D03*
X147290000Y-115875000D03*
X147290000Y-117145000D03*
X153790000Y-117145000D03*
X153790000Y-115875000D03*
X153790000Y-114605000D03*
X153790000Y-113335000D03*
X153790000Y-112065000D03*
X153790000Y-110795000D03*
X153790000Y-109525000D03*
X153790000Y-108255000D03*
%TD*%
D12*
%TO.C,C17*%
X74880000Y-54700000D03*
X74880000Y-57650000D03*
%TD*%
D11*
%TO.C,R16*%
X130569200Y-65593200D03*
X130569200Y-62668200D03*
%TD*%
D23*
%TO.C,U1*%
X164312500Y-110130000D03*
X164312500Y-111400000D03*
X164312500Y-112670000D03*
X164312500Y-113940000D03*
X164312500Y-115210000D03*
X164312500Y-116480000D03*
X164312500Y-117750000D03*
X169262500Y-117750000D03*
X169262500Y-116480000D03*
X169262500Y-115210000D03*
X169262500Y-113940000D03*
X169262500Y-112670000D03*
X169262500Y-111400000D03*
X169262500Y-110130000D03*
%TD*%
D12*
%TO.C,C18*%
X74880000Y-65075000D03*
X74880000Y-68025000D03*
%TD*%
D22*
%TO.C,R18*%
X177007500Y-87001785D03*
X179932500Y-87001785D03*
%TD*%
D19*
%TO.C,R17*%
X175225000Y-77450000D03*
X172300000Y-77450000D03*
%TD*%
D15*
%TO.C,C19*%
X74875000Y-75850000D03*
X74875000Y-72900000D03*
%TD*%
D24*
%TO.C,D4*%
X134525000Y-53075000D03*
X137825000Y-53075000D03*
%TD*%
D11*
%TO.C,R15*%
X133058400Y-65577900D03*
X133058400Y-62652900D03*
%TD*%
D15*
%TO.C,C3*%
X135942400Y-104875000D03*
X135942400Y-101925000D03*
%TD*%
D11*
%TO.C,R8*%
X148372260Y-65602500D03*
X148372260Y-62677500D03*
%TD*%
D12*
%TO.C,C14*%
X69175000Y-74500000D03*
X69175000Y-77450000D03*
%TD*%
D11*
%TO.C,R31*%
X101003000Y-65602500D03*
X101003000Y-62677500D03*
%TD*%
D14*
%TO.C,C11*%
X171804943Y-66106134D03*
X168854943Y-66106134D03*
%TD*%
D10*
%TO.C,R30*%
X98488400Y-91140000D03*
X98488400Y-94065000D03*
%TD*%
D20*
%TO.C,U5*%
X132355340Y-108255000D03*
X132355340Y-109525000D03*
X132355340Y-110795000D03*
X132355340Y-112065000D03*
X132355340Y-113335000D03*
X132355340Y-114605000D03*
X132355340Y-115875000D03*
X132355340Y-117145000D03*
X138855340Y-117145000D03*
X138855340Y-115875000D03*
X138855340Y-114605000D03*
X138855340Y-113335000D03*
X138855340Y-112065000D03*
X138855340Y-110795000D03*
X138855340Y-109525000D03*
X138855340Y-108255000D03*
%TD*%
D25*
%TO.C,J3*%
X57570000Y-105320000D03*
X57570000Y-106120000D03*
X57570000Y-107420000D03*
X57570000Y-108420000D03*
X57570000Y-108920000D03*
X57570000Y-109920000D03*
X57570000Y-111220000D03*
X57570000Y-112020000D03*
X57570000Y-111720000D03*
X57570000Y-110920000D03*
X57570000Y-110420000D03*
X57570000Y-109420000D03*
X57570000Y-107920000D03*
X57570000Y-106920000D03*
X57570000Y-106420000D03*
X57570000Y-105620000D03*
%TD*%
D22*
%TO.C,R38*%
X176605835Y-66086134D03*
X179530835Y-66086134D03*
%TD*%
D15*
%TO.C,C1*%
X150890000Y-104875000D03*
X150890000Y-101925000D03*
%TD*%
D23*
%TO.C,U6*%
X80937500Y-90925000D03*
X80937500Y-92195000D03*
X80937500Y-93465000D03*
X80937500Y-94735000D03*
X80937500Y-96005000D03*
X80937500Y-97275000D03*
X80937500Y-98545000D03*
X85887500Y-98545000D03*
X85887500Y-97275000D03*
X85887500Y-96005000D03*
X85887500Y-94735000D03*
X85887500Y-93465000D03*
X85887500Y-92195000D03*
X85887500Y-90925000D03*
%TD*%
D13*
%TO.C,U13*%
X78485000Y-60100000D03*
X79755000Y-60100000D03*
X81025000Y-60100000D03*
X82295000Y-60100000D03*
X83565000Y-60100000D03*
X84835000Y-60100000D03*
X86105000Y-60100000D03*
X87375000Y-60100000D03*
X87375000Y-55150000D03*
X86105000Y-55150000D03*
X84835000Y-55150000D03*
X83565000Y-55150000D03*
X82295000Y-55150000D03*
X81025000Y-55150000D03*
X79755000Y-55150000D03*
X78485000Y-55150000D03*
%TD*%
D10*
%TO.C,R4*%
X153426860Y-91140000D03*
X153426860Y-94065000D03*
%TD*%
M02*
