M48
; DRILL file {KiCad 9.0.2+dfsg-1} date 2025-12-23T07:51:46+0000
; FORMAT={-:-/ absolute / metric / decimal}
; #@! TF.CreationDate,2025-12-23T07:51:46+00:00
; #@! TF.GenerationSoftware,Kicad,Pcbnew,9.0.2+dfsg-1
; #@! TF.FileFunction,Plated,1,2,PTH
FMAT,2
METRIC
; #@! TA.AperFunction,Plated,PTH,ViaDrill
T1C0.400
; #@! TA.AperFunction,Plated,PTH,ComponentDrill
T2C0.500
; #@! TA.AperFunction,Plated,PTH,ComponentDrill
T3C0.600
; #@! TA.AperFunction,Plated,PTH,ComponentDrill
T4C0.800
; #@! TA.AperFunction,Plated,PTH,ComponentDrill
T5C0.950
; #@! TA.AperFunction,Plated,PTH,ComponentDrill
T6C1.100
; #@! TA.AperFunction,Plated,PTH,ComponentDrill
T7C1.200
; #@! TA.AperFunction,Plated,PTH,ComponentDrill
T8C2.200
; #@! TA.AperFunction,Plated,PTH,ComponentDrill
T9C2.300
%
G90
G05
T1
X58.25Y-84.854
X60.325Y-63.875
X60.35Y-103.337
X60.35Y-114.188
X66.0Y-84.839
X66.425Y-116.225
X71.375Y-77.45
X74.88Y-59.75
X74.88Y-70.075
X76.75Y-95.9
X77.75Y-94.9
X78.75Y-98.545
X79.5Y-89.3
X80.938Y-87.812
X87.375Y-61.875
X87.4Y-84.375
X90.3Y-112.325
X91.425Y-86.175
X94.427Y-125.188
X97.44Y-108.25
X97.44Y-110.8
X97.44Y-117.15
X98.488Y-98.5
X100.94Y-98.45
X108.699Y-109.55
X109.065Y-119.2
X109.09Y-114.6
X109.09Y-117.1
X112.19Y-102.2
X112.19Y-103.325
X112.24Y-112.1
X112.24Y-113.3
X112.24Y-117.15
X113.728Y-98.5
X113.815Y-123.95
X116.24Y-98.45
X117.49Y-113.65
X122.94Y-122.525
X122.94Y-125.05
X124.04Y-109.5
X124.277Y-114.587
X124.29Y-117.145
X129.59Y-112.065
X129.59Y-117.15
X129.64Y-99.35
X129.74Y-125.075
X130.435Y-97.99
X132.415Y-122.425
X132.95Y-98.5
X135.389Y-113.9
X135.44Y-108.2
X141.29Y-109.5
X142.19Y-114.605
X142.19Y-117.15
X142.44Y-122.825
X144.89Y-117.15
X145.89Y-98.5
X147.74Y-125.05
X148.39Y-98.5
X149.229Y-113.339
X149.736Y-112.064
X151.127Y-121.037
X155.887Y-109.55
X156.44Y-102.45
X156.49Y-99.125
X156.89Y-114.5
X156.89Y-117.0
X159.54Y-105.2
X162.0Y-115.21
X162.0Y-116.5
X164.25Y-119.25
X165.55Y-111.4
X166.73Y-66.386
X167.25Y-116.5
X173.25Y-105.125
X174.43Y-66.086
X179.925Y-84.67
X179.938Y-99.07
X182.005Y-66.086
X182.355Y-72.136
X183.3Y-79.2
T2
X60.922Y-80.225
X63.462Y-80.225
T4
X66.501Y-125.805
X69.001Y-125.805
X72.525Y-106.25
X72.525Y-108.75
X98.438Y-70.86
X98.438Y-86.1
X100.978Y-70.86
X100.978Y-86.1
X103.518Y-70.86
X103.518Y-86.1
X106.058Y-70.86
X106.058Y-86.1
X108.598Y-70.86
X108.598Y-86.1
X113.733Y-70.86
X113.733Y-86.1
X116.273Y-70.86
X116.273Y-86.1
X118.813Y-70.86
X118.813Y-86.1
X121.353Y-70.86
X121.353Y-86.1
X123.893Y-70.86
X123.893Y-86.1
X125.725Y-53.125
X129.125Y-53.125
X130.529Y-70.835
X130.529Y-86.075
X133.069Y-70.835
X133.069Y-86.075
X135.609Y-70.835
X135.609Y-86.075
X138.149Y-70.835
X138.149Y-86.075
X140.689Y-70.835
X140.689Y-86.075
X145.825Y-70.86
X145.825Y-86.1
X148.365Y-70.86
X148.365Y-86.1
X150.905Y-70.86
X150.905Y-86.1
X153.445Y-70.86
X153.445Y-86.1
X155.985Y-70.86
X155.985Y-86.1
T5
X191.75Y-68.92
X191.75Y-71.42
X191.75Y-73.42
X191.75Y-75.92
X191.79Y-99.95
X191.79Y-102.45
X191.79Y-104.45
X191.79Y-106.95
T6
X165.7Y-82.502
X165.7Y-87.002
X165.7Y-97.025
X165.7Y-101.525
X172.2Y-82.502
X172.2Y-87.002
X172.2Y-97.025
X172.2Y-101.525
T7
X167.05Y-54.525
X172.05Y-54.525
X177.05Y-54.525
T8
X55.0Y-55.0
X55.0Y-130.0
X200.0Y-55.0
X200.0Y-130.0
T9
X194.46Y-65.85
X194.46Y-78.99
X194.5Y-96.88
X194.5Y-110.02
T3
G00X53.125Y-104.35
M15
G01X52.525Y-104.35
M16
G05
G00X53.125Y-112.99
M15
G01X52.525Y-112.99
M16
G05
G00X57.555Y-104.35
M15
G01X56.455Y-104.35
M16
G05
G00X57.555Y-112.99
M15
G01X56.455Y-112.99
M16
G05
M30
