%TF.GenerationSoftware,KiCad,Pcbnew,9.0.2+dfsg-1*%
%TF.CreationDate,2025-12-23T07:51:39+00:00*%
%TF.ProjectId,OldStyleDigitalClock,4f6c6453-7479-46c6-9544-69676974616c,1*%
%TF.SameCoordinates,Original*%
%TF.FileFunction,Soldermask,Bot*%
%TF.FilePolarity,Negative*%
%FSLAX46Y46*%
G04 Gerber Fmt 4.6, Leading zero omitted, Abs format (unit mm)*
G04 Created by KiCad (PCBNEW 9.0.2+dfsg-1) date 2025-12-23 07:51:39*
%MOMM*%
%LPD*%
G01*
G04 APERTURE LIST*
G04 Aperture macros list*
%AMRoundRect*
0 Rectangle with rounded corners*
0 $1 Rounding radius*
0 $2 $3 $4 $5 $6 $7 $8 $9 X,Y pos of 4 corners*
0 Add a 4 corners polygon primitive as box body*
4,1,4,$2,$3,$4,$5,$6,$7,$8,$9,$2,$3,0*
0 Add four circle primitives for the rounded corners*
1,1,$1+$1,$2,$3*
1,1,$1+$1,$4,$5*
1,1,$1+$1,$6,$7*
1,1,$1+$1,$8,$9*
0 Add four rect primitives between the rounded corners*
20,1,$1+$1,$2,$3,$4,$5,0*
20,1,$1+$1,$4,$5,$6,$7,0*
20,1,$1+$1,$6,$7,$8,$9,0*
20,1,$1+$1,$8,$9,$2,$3,0*%
G04 Aperture macros list end*
%ADD10C,3.800000*%
%ADD11R,1.600000X1.600000*%
%ADD12C,1.600000*%
%ADD13RoundRect,0.250000X0.550000X0.550000X-0.550000X0.550000X-0.550000X-0.550000X0.550000X-0.550000X0*%
%ADD14R,1.500000X1.600000*%
%ADD15C,3.000000*%
%ADD16C,1.000000*%
%ADD17R,3.000000X3.000000*%
%ADD18C,2.000000*%
%ADD19C,1.500000*%
%ADD20RoundRect,0.250000X0.550000X-0.550000X0.550000X0.550000X-0.550000X0.550000X-0.550000X-0.550000X0*%
%ADD21C,0.650000*%
%ADD22O,2.100000X1.000000*%
%ADD23O,1.600000X1.000000*%
G04 APERTURE END LIST*
D10*
%TO.C,H3*%
X55000000Y-130000000D03*
%TD*%
D11*
%TO.C,U4*%
X130529113Y-86075400D03*
D12*
X133069113Y-86075400D03*
X135609113Y-86075400D03*
X138149113Y-86075400D03*
X140689113Y-86075400D03*
X140689113Y-70835400D03*
X138149113Y-70835400D03*
X135609113Y-70835400D03*
X133069113Y-70835400D03*
X130529113Y-70835400D03*
%TD*%
D10*
%TO.C,H2*%
X200000000Y-130000000D03*
%TD*%
D13*
%TO.C,C9*%
X69001380Y-125805000D03*
D12*
X66501380Y-125805000D03*
%TD*%
D14*
%TO.C,J2*%
X191790000Y-106950000D03*
D12*
X191790000Y-104450000D03*
X191790000Y-102450000D03*
X191790000Y-99950000D03*
D15*
X194500000Y-110020000D03*
X194500000Y-96880000D03*
%TD*%
D10*
%TO.C,H4*%
X55000000Y-55000000D03*
%TD*%
D16*
%TO.C,Y1*%
X60922500Y-80225000D03*
X63462500Y-80225000D03*
%TD*%
D14*
%TO.C,J1*%
X191750000Y-75920000D03*
D12*
X191750000Y-73420000D03*
X191750000Y-71420000D03*
X191750000Y-68920000D03*
D15*
X194460000Y-78990000D03*
X194460000Y-65850000D03*
%TD*%
D17*
%TO.C,RV1*%
X177050000Y-54525000D03*
D15*
X172050000Y-54525000D03*
X167050000Y-54525000D03*
%TD*%
D18*
%TO.C,SW2*%
X165700000Y-82501785D03*
X172200000Y-82501785D03*
X165700000Y-87001785D03*
X172200000Y-87001785D03*
%TD*%
D10*
%TO.C,H1*%
X200000000Y-55000000D03*
%TD*%
D18*
%TO.C,SW1*%
X165700000Y-97025000D03*
X172200000Y-97025000D03*
X165700000Y-101525000D03*
X172200000Y-101525000D03*
%TD*%
D11*
%TO.C,U2*%
X145824800Y-86100000D03*
D12*
X148364800Y-86100000D03*
X150904800Y-86100000D03*
X153444800Y-86100000D03*
X155984800Y-86100000D03*
X155984800Y-70860000D03*
X153444800Y-70860000D03*
X150904800Y-70860000D03*
X148364800Y-70860000D03*
X145824800Y-70860000D03*
%TD*%
D19*
%TO.C,R37*%
X125725000Y-53125000D03*
X129125000Y-53125000D03*
%TD*%
D11*
%TO.C,U9*%
X98437740Y-86100000D03*
D12*
X100977740Y-86100000D03*
X103517740Y-86100000D03*
X106057740Y-86100000D03*
X108597740Y-86100000D03*
X108597740Y-70860000D03*
X106057740Y-70860000D03*
X103517740Y-70860000D03*
X100977740Y-70860000D03*
X98437740Y-70860000D03*
%TD*%
D20*
%TO.C,C10*%
X72525000Y-108750000D03*
D12*
X72525000Y-106250000D03*
%TD*%
D21*
%TO.C,J3*%
X56505000Y-105780000D03*
X56505000Y-111560000D03*
D22*
X57005000Y-104350000D03*
D23*
X52825000Y-104350000D03*
D22*
X57005000Y-112990000D03*
D23*
X52825000Y-112990000D03*
%TD*%
D11*
%TO.C,U7*%
X113733427Y-86100000D03*
D12*
X116273427Y-86100000D03*
X118813427Y-86100000D03*
X121353427Y-86100000D03*
X123893427Y-86100000D03*
X123893427Y-70860000D03*
X121353427Y-70860000D03*
X118813427Y-70860000D03*
X116273427Y-70860000D03*
X113733427Y-70860000D03*
%TD*%
M02*
